<svg width="512" height="512" viewBox="0 0 512 512" fill="none" xmlns="http://www.w3.org/2000/svg">
<g clip-path="url(#clip0_476_7)">
<rect width="512" height="512" fill="#0A0C0F"/>
<path d="M341.394 233.364H291.323C290.968 229.221 290.021 225.462 288.482 222.089C287.002 218.715 284.931 215.815 282.267 213.388C279.663 210.903 276.497 209.009 272.768 207.707C269.039 206.345 264.808 205.665 260.073 205.665C251.787 205.665 244.773 207.677 239.032 211.702C233.35 215.726 229.03 221.497 226.071 229.013C223.17 236.53 221.72 245.556 221.72 256.091C221.72 267.218 223.2 276.54 226.159 284.056C229.178 291.513 233.528 297.136 239.21 300.924C244.892 304.653 251.728 306.517 259.718 306.517C264.275 306.517 268.359 305.955 271.969 304.83C275.579 303.647 278.716 301.96 281.38 299.77C284.043 297.58 286.203 294.946 287.86 291.869C289.577 288.732 290.731 285.21 291.323 281.304L341.394 281.659C340.802 289.353 338.642 297.195 334.913 305.185C331.184 313.116 325.887 320.455 319.022 327.202C312.215 333.89 303.781 339.276 293.72 343.36C283.658 347.444 271.969 349.486 258.652 349.486C241.962 349.486 226.988 345.905 213.73 338.744C200.532 331.582 190.086 321.047 182.392 307.138C174.757 293.23 170.939 276.214 170.939 256.091C170.939 235.849 174.845 218.804 182.658 204.955C190.47 191.046 201.005 180.54 214.263 173.438C227.521 166.277 242.317 162.696 258.652 162.696C270.134 162.696 280.699 164.264 290.346 167.401C299.993 170.538 308.457 175.125 315.737 181.162C323.017 187.14 328.876 194.508 333.315 203.268C337.754 212.027 340.447 222.059 341.394 233.364Z" fill="#2D8FC4"/>
</g>
<defs>
<clipPath id="clip0_476_7">
<rect width="512" height="512" fill="white"/>
</clipPath>
</defs>
</svg>
